<svg width="28" height="28" viewBox="0 0 28 28" fill="none" xmlns="http://www.w3.org/2000/svg">
<path d="M14 5.99609C13.4287 5.99609 13.042 6.3916 13.042 6.97168L13.042 17.8877L13.1123 19.7773L10.792 17.1934L8.79687 15.2246C8.62109 15.0576 8.38379 14.9434 8.11133 14.9434C7.58398 14.9434 7.19726 15.3477 7.19726 15.8838C7.19726 16.1387 7.29394 16.3672 7.49609 16.5781L13.2881 22.3789C13.4814 22.5723 13.7363 22.6865 14 22.6865C14.2637 22.6865 14.5186 22.5723 14.7119 22.3789L20.5039 16.5781C20.7061 16.3672 20.8027 16.1387 20.8027 15.8838C20.8027 15.3477 20.4072 14.9434 19.8799 14.9434C19.6162 14.9434 19.3701 15.0576 19.2031 15.2246L17.208 17.1934L14.8877 19.7861L14.958 17.8877L14.958 6.97168C14.958 6.3916 14.5625 5.99609 14 5.99609Z" fill="#0C0D0E"/>
</svg>
