<svg width="28" height="28" viewBox="0 0 28 28" fill="none" xmlns="http://www.w3.org/2000/svg">
<path d="M7.37305 10.4463L7.38184 19.2705C7.38184 19.877 7.77734 20.29 8.40137 20.29H17.2344C17.8232 20.29 18.2275 19.8506 18.2275 19.332C18.2275 18.8223 17.7881 18.4004 17.2607 18.4004H14.1318L10.3438 18.5234L11.9434 17.1172L20.3105 8.73242C20.5127 8.53027 20.627 8.28418 20.627 8.03809C20.627 7.52832 20.1523 7.05371 19.6338 7.05371C19.3877 7.05371 19.1416 7.15039 18.9395 7.35254L10.5547 15.7373L9.13965 17.3369L9.28027 13.707V10.4199C9.28027 9.89258 8.8584 9.44434 8.33984 9.44434C7.82129 9.44434 7.37305 9.875 7.37305 10.4463Z" fill="#0C0D0E"/>
</svg>
